<svg id="svg" version="1.1" xmlns="http://www.w3.org/2000/svg" xmlns:xlink="http://www.w3.org/1999/xlink" width="400" height="400" viewBox="0, 0, 400,400"><g id="svgg"><path id="path0" d="M182.200 41.078 C 181.540 41.164,180.730 41.344,180.400 41.479 C 180.070 41.613,179.530 41.693,179.200 41.657 C 178.870 41.621,177.398 41.937,175.930 42.359 C 174.461 42.781,173.156 43.023,173.030 42.897 C 172.903 42.770,172.800 42.860,172.800 43.096 C 172.800 43.332,172.440 43.431,172.000 43.316 C 171.535 43.194,171.200 43.304,171.200 43.577 C 171.200 43.836,171.029 43.942,170.821 43.813 C 170.295 43.488,166.800 44.408,166.800 44.871 C 166.800 45.078,166.616 45.134,166.392 44.995 C 166.168 44.857,165.313 44.950,164.492 45.202 C 162.588 45.787,162.265 45.883,161.907 45.966 C 161.746 46.004,160.941 46.316,160.118 46.660 C 159.295 47.004,158.172 47.367,157.623 47.466 C 157.074 47.566,156.377 47.853,156.073 48.105 C 155.770 48.357,155.135 48.618,154.661 48.685 C 153.325 48.874,151.600 49.656,151.600 50.072 C 151.600 50.278,151.415 50.333,151.190 50.194 C 150.726 49.907,143.240 53.754,142.556 54.631 C 142.312 54.944,141.879 55.200,141.594 55.200 C 141.147 55.200,138.585 56.906,138.000 57.592 C 137.890 57.722,136.900 58.540,135.800 59.412 C 134.700 60.284,133.509 61.312,133.153 61.698 C 132.797 62.084,132.292 62.400,132.029 62.400 C 131.767 62.400,131.664 62.580,131.800 62.800 C 131.936 63.020,131.812 63.201,131.524 63.202 C 130.568 63.204,124.100 69.255,120.574 73.443 C 116.291 78.533,110.983 87.068,110.638 89.423 C 110.591 89.745,110.338 90.222,110.076 90.484 C 109.814 90.746,109.600 91.244,109.600 91.591 C 109.600 91.938,109.320 92.622,108.977 93.112 C 108.634 93.601,108.455 94.166,108.579 94.367 C 108.703 94.567,108.635 94.792,108.427 94.866 C 108.219 94.940,107.978 95.450,107.892 96.000 C 107.806 96.550,107.532 97.450,107.285 98.000 C 106.581 99.561,105.231 104.825,105.068 106.640 C 104.987 107.542,104.808 108.463,104.671 108.686 C 103.292 110.916,104.527 125.568,106.331 128.400 C 106.682 128.950,107.004 129.619,107.047 129.887 C 107.206 130.873,110.081 133.950,111.212 134.344 C 112.933 134.944,117.200 133.858,117.200 132.820 C 117.200 132.589,117.526 132.400,117.925 132.400 C 118.323 132.400,119.015 132.059,119.462 131.643 C 119.909 131.226,120.832 130.597,121.513 130.245 C 122.194 129.893,123.032 129.203,123.376 128.713 C 123.719 128.223,124.000 127.965,124.000 128.140 C 124.000 128.314,124.295 128.162,124.656 127.801 C 125.017 127.440,125.782 126.842,126.356 126.472 C 126.930 126.103,127.738 125.530,128.152 125.200 C 130.228 123.545,132.669 121.525,133.234 120.995 C 133.582 120.668,134.032 120.402,134.234 120.404 C 134.778 120.410,139.596 115.086,139.598 114.476 C 139.599 114.188,139.780 114.064,140.000 114.200 C 140.220 114.336,140.400 114.269,140.400 114.052 C 140.400 113.835,140.710 113.347,141.088 112.969 C 141.467 112.590,143.533 109.833,145.680 106.840 C 147.826 103.848,150.148 100.663,150.839 99.763 C 151.530 98.863,152.389 97.626,152.748 97.014 C 153.106 96.402,154.030 95.220,154.800 94.388 C 156.932 92.082,157.410 91.447,157.290 91.078 C 157.230 90.893,157.345 90.842,157.546 90.967 C 157.748 91.091,158.201 90.753,158.554 90.215 C 158.906 89.676,159.590 88.868,160.073 88.418 C 160.556 87.968,160.851 87.600,160.729 87.600 C 160.607 87.600,161.428 86.663,162.553 85.517 C 163.679 84.372,164.559 83.303,164.508 83.142 C 164.458 82.981,164.728 82.749,165.108 82.627 C 165.489 82.505,166.160 81.863,166.600 81.200 C 167.040 80.537,167.679 79.906,168.019 79.796 C 168.360 79.687,169.370 78.923,170.264 78.099 C 171.158 77.274,172.500 76.279,173.245 75.887 C 173.990 75.495,175.230 74.642,176.000 73.992 C 176.770 73.341,177.617 72.627,177.883 72.404 C 178.149 72.182,178.564 72.000,178.807 72.000 C 179.049 72.000,179.136 71.820,179.000 71.600 C 178.864 71.380,179.033 71.200,179.376 71.200 C 179.719 71.200,180.000 71.020,180.000 70.800 C 180.000 70.580,180.163 70.400,180.363 70.400 C 181.026 70.400,186.006 66.939,185.734 66.667 C 185.587 66.520,185.857 66.400,186.333 66.400 C 186.810 66.400,187.200 66.241,187.200 66.047 C 187.200 65.852,187.515 65.580,187.900 65.443 C 188.874 65.094,191.427 63.495,192.503 62.560 C 192.996 62.131,193.983 61.538,194.695 61.243 C 195.407 60.948,195.874 60.520,195.733 60.292 C 195.592 60.063,195.663 59.992,195.891 60.132 C 196.272 60.368,196.979 59.891,200.733 56.872 C 205.853 52.753,207.526 49.444,205.481 47.482 C 203.367 45.454,201.597 44.000,201.244 44.000 C 201.036 44.000,200.807 43.843,200.733 43.651 C 199.969 41.651,189.231 40.160,182.200 41.078 M206.246 101.887 C 206.198 101.935,204.098 102.066,201.579 102.177 C 199.061 102.289,196.280 102.459,195.400 102.554 C 194.520 102.649,192.630 102.853,191.200 103.007 C 189.770 103.160,188.445 103.380,188.255 103.494 C 188.066 103.609,186.936 103.776,185.745 103.865 C 184.554 103.955,183.089 104.218,182.490 104.450 C 181.890 104.682,180.770 104.945,180.000 105.035 C 179.230 105.125,178.150 105.306,177.600 105.437 C 177.050 105.568,176.285 105.748,175.900 105.838 C 175.515 105.927,174.795 106.108,174.300 106.240 C 173.805 106.373,172.905 106.573,172.300 106.686 C 171.695 106.799,171.200 107.080,171.200 107.312 C 171.200 107.544,171.095 107.629,170.968 107.501 C 170.000 106.534,146.400 115.952,146.400 117.305 C 146.400 117.493,146.255 117.558,146.078 117.448 C 145.486 117.082,134.118 124.428,133.736 125.422 C 133.614 125.740,133.303 126.000,133.045 126.000 C 131.639 126.000,118.376 139.489,118.886 140.400 C 118.948 140.510,118.438 141.186,117.753 141.903 C 117.069 142.619,116.079 144.054,115.554 145.092 C 115.029 146.130,114.360 147.237,114.067 147.552 C 113.530 148.128,112.908 149.495,112.882 150.155 C 112.875 150.351,112.697 150.621,112.487 150.755 C 112.031 151.048,109.896 155.587,109.879 156.300 C 109.872 156.575,109.735 156.800,109.575 156.800 C 109.155 156.800,106.295 165.906,106.573 166.356 C 106.701 166.563,106.643 166.792,106.444 166.866 C 104.378 167.634,103.698 190.635,105.381 202.800 C 105.518 203.790,105.624 205.014,105.618 205.520 C 105.611 206.026,105.786 207.245,106.006 208.228 C 106.226 209.211,106.504 210.686,106.623 211.507 C 106.741 212.328,106.948 213.270,107.081 213.600 C 107.214 213.930,107.284 214.515,107.236 214.900 C 107.189 215.285,107.352 215.600,107.598 215.600 C 107.845 215.600,107.946 215.764,107.822 215.964 C 107.509 216.470,108.457 220.400,108.892 220.400 C 109.088 220.400,109.127 220.594,108.981 220.831 C 108.835 221.068,108.981 222.013,109.306 222.931 C 109.631 223.849,110.132 225.410,110.420 226.400 C 110.708 227.390,111.067 228.380,111.217 228.600 C 111.367 228.820,111.815 230.052,112.212 231.338 C 112.609 232.624,113.128 233.888,113.367 234.148 C 113.605 234.407,113.853 234.885,113.918 235.210 C 113.983 235.534,114.334 236.430,114.698 237.200 C 115.062 237.970,115.395 238.780,115.439 239.000 C 115.574 239.682,118.649 245.231,119.339 246.037 C 119.698 246.457,119.889 246.800,119.763 246.800 C 119.492 246.800,121.155 249.579,121.859 250.302 C 122.128 250.579,122.462 251.164,122.601 251.602 C 122.740 252.041,123.010 252.400,123.200 252.400 C 123.390 252.400,123.650 252.726,123.776 253.125 C 123.903 253.524,124.614 254.514,125.357 255.325 C 126.100 256.136,126.622 256.800,126.517 256.800 C 126.197 256.800,129.615 260.772,132.961 264.289 C 134.700 266.116,136.201 267.532,136.299 267.435 C 136.396 267.337,136.998 267.854,137.638 268.582 C 139.082 270.227,145.196 274.933,145.889 274.933 C 146.170 274.933,146.313 275.021,146.206 275.127 C 145.912 275.421,147.310 276.373,148.057 276.387 C 148.419 276.394,148.801 276.625,148.907 276.900 C 149.443 278.292,167.019 286.597,170.319 287.017 C 170.825 287.081,171.500 287.351,171.819 287.616 C 172.139 287.881,172.400 287.990,172.400 287.859 C 172.400 287.727,172.895 287.819,173.500 288.062 C 174.872 288.614,180.192 289.987,181.800 290.205 C 182.460 290.294,183.720 290.544,184.600 290.762 C 185.480 290.979,186.830 291.259,187.600 291.385 C 188.370 291.511,189.540 291.728,190.200 291.868 C 190.860 292.008,192.139 292.158,193.041 292.201 C 193.944 292.245,194.867 292.394,195.092 292.533 C 196.311 293.286,229.617 293.680,241.800 293.084 C 252.508 292.561,255.752 292.349,258.600 291.983 C 263.570 291.344,264.550 291.237,267.563 291.001 C 269.192 290.874,270.658 290.688,270.820 290.588 C 271.181 290.365,273.946 289.924,274.892 289.938 C 275.273 289.944,275.690 289.778,275.820 289.568 C 275.949 289.358,276.211 289.283,276.402 289.401 C 276.743 289.612,280.034 289.014,281.200 288.529 C 281.530 288.392,282.160 288.243,282.600 288.199 C 284.399 288.018,288.000 287.051,288.000 286.749 C 288.000 286.571,288.257 286.524,288.572 286.645 C 288.887 286.765,289.780 286.562,290.557 286.194 C 293.035 285.018,292.948 285.767,290.451 287.108 C 288.090 288.375,283.468 289.735,283.025 289.292 C 282.901 289.168,282.800 289.287,282.800 289.557 C 282.800 289.827,282.617 289.934,282.392 289.795 C 281.948 289.521,273.262 291.079,272.604 291.551 C 272.382 291.711,271.570 291.895,270.800 291.961 C 270.030 292.027,269.310 292.198,269.200 292.342 C 269.090 292.485,268.460 292.658,267.800 292.726 C 267.140 292.794,266.079 293.223,265.443 293.679 C 264.806 294.135,264.424 294.285,264.592 294.013 C 264.761 293.740,264.426 293.826,263.849 294.205 C 263.272 294.583,262.800 295.051,262.800 295.246 C 262.800 295.961,262.724 296.209,262.379 296.625 C 261.421 297.780,263.600 304.215,266.163 307.800 C 266.635 308.460,267.366 309.664,267.788 310.476 C 268.210 311.287,268.728 311.844,268.940 311.714 C 269.151 311.583,269.199 311.678,269.047 311.924 C 268.895 312.170,269.137 312.737,269.585 313.185 C 270.033 313.633,270.312 314.000,270.205 314.000 C 270.098 314.000,270.638 314.981,271.405 316.181 C 272.172 317.380,272.800 318.484,272.800 318.633 C 272.800 318.782,273.430 319.781,274.200 320.853 C 274.970 321.925,275.600 322.899,275.600 323.017 C 275.600 323.283,276.795 324.980,279.382 328.389 C 281.677 331.411,282.800 332.678,282.800 332.245 C 282.800 332.076,283.271 332.498,283.846 333.182 C 284.421 333.866,285.726 334.997,286.746 335.696 C 287.766 336.395,288.960 337.301,289.400 337.709 C 289.840 338.118,291.141 338.991,292.292 339.650 C 293.442 340.310,294.488 341.018,294.615 341.225 C 294.743 341.431,295.175 341.600,295.575 341.600 C 295.975 341.600,296.534 341.879,296.816 342.220 C 297.401 342.925,300.192 344.270,301.635 344.544 C 302.166 344.644,303.126 344.930,303.769 345.180 C 304.412 345.429,305.159 345.548,305.430 345.444 C 305.700 345.340,306.035 345.368,306.172 345.506 C 306.453 345.786,306.315 345.757,310.322 346.400 C 311.929 346.658,313.499 346.771,313.809 346.652 C 314.120 346.532,314.483 346.611,314.616 346.826 C 314.844 347.196,323.031 347.087,324.400 346.696 C 324.730 346.602,325.540 346.384,326.200 346.212 C 328.397 345.640,333.200 343.531,333.200 343.139 C 333.200 342.927,333.361 342.853,333.559 342.974 C 335.261 344.026,347.936 330.152,346.832 328.445 C 346.777 328.359,346.882 328.179,347.066 328.045 C 347.474 327.746,348.944 324.903,348.781 324.726 C 348.717 324.657,348.881 324.196,349.145 323.703 C 350.197 321.737,350.479 314.713,349.591 312.600 C 349.314 311.940,349.054 311.113,349.015 310.761 C 348.758 308.481,338.453 296.572,336.094 295.828 C 335.596 295.671,335.292 295.375,335.418 295.171 C 335.544 294.967,335.457 294.800,335.225 294.800 C 334.992 294.800,334.127 294.208,333.301 293.484 C 331.705 292.084,331.553 291.975,326.600 288.684 C 321.413 285.238,319.361 284.000,318.836 284.000 C 318.565 284.000,318.071 283.728,317.739 283.396 C 317.407 283.064,316.970 282.895,316.768 283.020 C 316.565 283.145,316.400 283.099,316.400 282.918 C 316.400 281.909,307.820 279.969,306.625 280.708 C 305.649 281.311,303.756 281.215,304.600 280.605 C 305.040 280.287,305.586 279.870,305.813 279.679 C 306.041 279.487,306.685 279.215,307.245 279.075 C 307.804 278.934,308.732 278.384,309.306 277.852 C 309.881 277.319,310.447 276.981,310.566 277.099 C 310.684 277.218,310.894 277.020,311.032 276.660 C 311.171 276.299,311.418 276.087,311.581 276.188 C 311.745 276.290,312.259 276.019,312.723 275.586 C 313.187 275.154,313.754 274.800,313.983 274.800 C 314.658 274.800,324.000 265.389,324.000 264.708 C 324.000 264.366,324.270 263.982,324.600 263.855 C 324.930 263.729,325.200 263.349,325.200 263.013 C 325.200 262.676,325.355 262.400,325.543 262.400 C 326.032 262.400,328.720 258.257,329.029 257.028 C 329.171 256.463,329.477 256.000,329.710 256.000 C 329.943 256.000,330.022 255.889,329.886 255.752 C 329.750 255.616,329.901 255.242,330.223 254.920 C 330.544 254.599,330.705 254.170,330.580 253.968 C 330.455 253.765,330.554 253.600,330.800 253.600 C 331.046 253.600,331.136 253.420,331.000 253.200 C 330.864 252.980,330.904 252.800,331.089 252.800 C 331.273 252.800,331.661 252.215,331.949 251.500 C 333.487 247.693,334.068 246.107,334.243 245.238 C 334.350 244.709,334.601 243.972,334.800 243.600 C 335.175 242.898,335.600 241.186,335.742 239.800 C 335.787 239.360,335.930 238.820,336.059 238.600 C 336.289 238.210,336.884 235.597,337.016 234.400 C 337.052 234.070,337.192 233.440,337.326 233.000 C 338.030 230.696,338.487 217.377,338.019 212.800 C 337.858 211.225,337.111 206.933,336.905 206.400 C 336.777 206.070,336.704 205.657,336.743 205.482 C 336.953 204.520,333.765 194.427,332.043 190.600 C 331.647 189.720,331.071 188.415,330.764 187.700 C 330.456 186.985,330.099 186.400,329.969 186.400 C 329.839 186.400,329.733 186.162,329.733 185.872 C 329.733 185.204,327.519 180.800,327.183 180.800 C 327.046 180.800,326.933 180.559,326.933 180.265 C 326.933 179.547,324.428 175.200,324.014 175.200 C 323.834 175.200,323.573 174.745,323.433 174.190 C 323.294 173.634,322.824 172.824,322.390 172.390 C 321.955 171.955,321.576 171.465,321.546 171.300 C 321.408 170.537,320.638 169.200,320.336 169.200 C 320.151 169.200,320.000 169.008,320.000 168.773 C 320.000 168.365,318.352 165.983,317.300 164.871 C 317.025 164.581,316.797 164.221,316.794 164.071 C 316.788 163.837,315.844 162.645,313.904 160.422 C 313.627 160.104,312.770 159.022,312.000 158.016 C 310.105 155.541,309.137 154.407,308.271 153.643 C 307.870 153.289,306.910 152.145,306.137 151.100 C 305.364 150.055,304.477 149.200,304.166 149.200 C 303.855 149.200,303.645 149.061,303.700 148.891 C 303.755 148.720,301.891 146.695,299.558 144.391 C 295.657 140.537,292.400 137.549,292.400 137.825 C 292.400 137.888,291.885 137.457,291.256 136.869 C 288.643 134.428,283.776 130.400,283.439 130.400 C 283.303 130.400,282.627 129.859,281.935 129.198 C 280.686 128.004,277.016 125.360,275.561 124.605 C 275.143 124.388,274.800 124.073,274.800 123.905 C 274.800 123.737,274.530 123.600,274.200 123.600 C 273.870 123.600,273.600 123.441,273.600 123.247 C 273.600 123.052,273.285 122.790,272.900 122.663 C 271.754 122.286,268.807 120.526,269.000 120.334 C 269.097 120.236,268.148 119.639,266.889 119.008 C 265.630 118.377,264.510 117.757,264.400 117.630 C 263.856 117.005,261.669 116.057,261.356 116.311 C 261.160 116.470,261.126 116.444,261.280 116.253 C 261.551 115.918,254.566 112.131,253.059 111.795 C 252.652 111.704,252.109 111.456,251.853 111.244 C 251.086 110.608,244.339 107.990,244.002 108.199 C 243.831 108.304,243.468 108.123,243.196 107.796 C 242.924 107.468,242.477 107.200,242.202 107.200 C 241.927 107.200,240.284 106.734,238.551 106.164 C 236.818 105.595,235.085 105.055,234.700 104.964 C 234.315 104.874,233.685 104.715,233.300 104.611 C 230.712 103.914,229.067 103.600,228.895 103.772 C 228.785 103.882,228.353 103.789,227.935 103.565 C 227.518 103.342,226.628 103.090,225.959 103.005 C 225.290 102.920,224.261 102.747,223.671 102.619 C 221.578 102.167,206.596 101.537,206.246 101.887 M218.400 115.331 C 218.730 115.449,219.900 115.638,221.000 115.753 C 224.739 116.143,229.193 117.093,233.171 118.349 C 234.584 118.795,235.889 119.068,236.071 118.956 C 236.252 118.844,236.400 118.900,236.400 119.080 C 236.400 119.329,240.805 121.166,242.000 121.415 C 242.110 121.438,242.740 121.692,243.400 121.978 C 245.796 123.019,246.210 123.179,246.790 123.289 C 247.115 123.350,247.625 123.627,247.923 123.904 C 248.221 124.181,248.618 124.313,248.805 124.197 C 248.992 124.082,249.240 124.142,249.357 124.331 C 249.474 124.520,250.972 125.377,252.685 126.236 C 254.398 127.094,255.894 127.921,256.008 128.073 C 256.267 128.417,258.083 129.123,258.528 129.052 C 258.709 129.023,259.033 129.315,259.248 129.700 C 259.463 130.085,260.001 130.400,260.443 130.400 C 260.886 130.400,261.156 130.547,261.045 130.727 C 260.934 130.907,261.855 131.582,263.091 132.227 C 264.327 132.872,265.532 133.588,265.769 133.817 C 266.006 134.047,267.631 135.217,269.380 136.417 C 272.965 138.878,272.737 138.707,276.789 141.983 C 278.433 143.312,279.963 144.400,280.189 144.400 C 280.415 144.400,281.106 145.034,281.724 145.809 C 282.342 146.584,283.017 147.113,283.224 146.985 C 283.431 146.857,283.600 146.944,283.600 147.177 C 283.600 147.662,286.815 150.670,287.114 150.466 C 287.222 150.392,287.455 150.565,287.631 150.850 C 287.807 151.135,289.633 153.085,291.689 155.184 C 296.152 159.740,300.812 164.945,302.432 167.180 C 303.077 168.071,303.784 168.800,304.003 168.800 C 304.221 168.800,304.400 168.998,304.400 169.240 C 304.400 169.481,305.480 171.112,306.800 172.864 C 308.120 174.616,309.200 176.184,309.200 176.349 C 309.200 176.514,309.520 176.998,309.912 177.425 C 310.783 178.373,312.855 181.715,314.734 185.200 C 315.505 186.630,316.250 187.890,316.390 188.000 C 316.531 188.110,316.890 188.830,317.189 189.600 C 317.487 190.370,317.959 191.270,318.237 191.600 C 318.515 191.930,318.757 192.380,318.773 192.600 C 318.829 193.333,319.699 195.794,320.067 196.259 C 320.267 196.512,320.509 197.129,320.606 197.630 C 320.702 198.131,320.920 198.644,321.091 198.771 C 321.261 198.897,321.402 199.180,321.404 199.400 C 321.407 199.620,321.791 201.060,322.259 202.600 C 324.896 211.285,325.860 221.479,324.698 228.400 C 324.531 229.390,324.297 230.920,324.178 231.800 C 323.885 233.953,323.770 234.487,323.439 235.244 C 323.284 235.598,323.101 236.318,323.033 236.844 C 322.964 237.370,322.706 238.301,322.459 238.914 C 322.211 239.527,322.036 240.157,322.069 240.314 C 322.140 240.652,321.369 242.706,320.800 243.695 C 320.580 244.077,320.400 244.587,320.400 244.829 C 320.400 245.217,319.055 248.034,317.045 251.858 C 316.681 252.550,316.117 253.337,315.792 253.607 C 315.466 253.877,315.200 254.257,315.200 254.452 C 315.200 255.176,309.984 260.857,307.521 262.815 C 306.488 263.637,305.753 264.420,305.888 264.555 C 306.023 264.690,305.904 264.800,305.625 264.800 C 305.345 264.800,304.342 265.323,303.396 265.961 C 302.449 266.600,301.296 267.243,300.832 267.390 C 300.364 267.538,300.108 267.851,300.256 268.091 C 300.408 268.337,300.338 268.409,300.094 268.258 C 299.858 268.112,299.401 268.256,299.080 268.577 C 298.758 268.899,298.384 269.050,298.248 268.914 C 298.111 268.778,298.000 268.877,298.000 269.133 C 298.000 269.390,297.865 269.571,297.700 269.536 C 297.301 269.452,296.250 269.856,293.600 271.112 C 292.390 271.685,291.040 272.213,290.600 272.284 C 290.160 272.355,288.424 272.869,286.742 273.426 C 285.060 273.982,283.170 274.524,282.542 274.630 C 281.914 274.736,281.130 274.921,280.800 275.041 C 279.289 275.589,270.737 277.235,268.412 277.425 C 266.989 277.541,265.729 277.763,265.612 277.918 C 265.496 278.073,264.680 278.219,263.800 278.243 C 262.920 278.266,261.390 278.392,260.400 278.523 C 256.293 279.065,253.667 279.288,251.400 279.288 C 250.080 279.287,248.868 279.366,248.706 279.463 C 246.712 280.661,203.832 280.288,193.400 278.983 C 192.300 278.845,190.950 278.679,190.400 278.614 C 189.850 278.549,189.130 278.384,188.800 278.248 C 188.470 278.111,187.660 277.938,187.000 277.863 C 185.251 277.664,181.842 276.840,178.275 275.752 C 176.557 275.229,174.972 274.800,174.753 274.800 C 174.535 274.800,173.534 274.425,172.529 273.968 C 171.524 273.510,170.375 273.072,169.977 272.996 C 169.578 272.919,168.880 272.657,168.426 272.414 C 167.972 272.171,167.597 272.113,167.594 272.286 C 167.591 272.459,167.456 272.395,167.294 272.144 C 167.132 271.894,165.110 270.756,162.800 269.616 C 153.553 265.053,144.808 258.226,138.185 250.400 C 136.799 248.762,136.168 247.881,133.960 244.500 C 133.063 243.125,132.164 242.000,131.964 242.000 C 131.764 242.000,131.600 241.713,131.600 241.362 C 131.600 240.708,130.080 238.306,129.514 238.067 C 129.342 237.993,129.200 237.610,129.200 237.216 C 129.200 236.821,128.926 236.270,128.590 235.992 C 128.255 235.714,128.067 235.399,128.173 235.294 C 128.279 235.188,127.856 234.088,127.234 232.851 C 124.878 228.166,121.727 218.998,120.595 213.532 C 120.261 211.919,119.878 210.330,119.743 210.000 C 119.608 209.670,119.456 209.040,119.407 208.600 C 119.221 206.952,118.742 203.779,118.591 203.200 C 118.506 202.870,118.329 201.430,118.198 200.000 C 118.067 198.570,117.871 196.500,117.761 195.400 C 117.519 192.968,117.511 179.472,117.750 177.800 C 117.845 177.140,118.118 175.520,118.357 174.200 C 118.596 172.880,118.850 171.252,118.922 170.582 C 118.993 169.912,119.151 169.192,119.273 168.982 C 119.395 168.772,119.907 167.250,120.411 165.600 C 120.916 163.950,121.832 161.536,122.447 160.235 C 123.063 158.933,123.473 157.718,123.359 157.534 C 123.246 157.350,123.354 157.200,123.600 157.200 C 123.846 157.200,123.943 157.031,123.815 156.825 C 123.688 156.618,123.834 156.303,124.141 156.125 C 124.448 155.946,125.163 154.900,125.730 153.800 C 126.630 152.055,128.213 149.779,131.189 145.955 C 131.637 145.380,132.619 144.307,133.373 143.570 C 134.126 142.834,134.663 142.101,134.565 141.943 C 134.392 141.663,135.143 141.018,135.656 141.006 C 135.797 141.003,136.986 140.010,138.297 138.800 C 141.498 135.847,142.198 135.286,145.000 133.428 C 146.320 132.553,147.544 131.604,147.720 131.318 C 147.896 131.033,148.293 130.800,148.602 130.800 C 148.912 130.800,150.118 130.235,151.282 129.544 C 154.427 127.680,160.718 124.573,163.400 123.559 C 165.054 122.934,170.223 121.139,170.800 120.989 C 171.130 120.903,172.390 120.548,173.600 120.199 C 174.810 119.850,176.237 119.473,176.772 119.361 C 177.307 119.250,177.862 119.085,178.006 118.997 C 178.150 118.908,178.867 118.729,179.600 118.600 C 180.333 118.471,181.128 118.244,181.366 118.095 C 181.605 117.946,182.205 117.877,182.700 117.941 C 183.195 118.005,183.601 117.909,183.602 117.729 C 183.604 117.548,184.327 117.373,185.211 117.339 C 186.095 117.306,187.129 117.147,187.509 116.985 C 187.889 116.824,188.830 116.632,189.600 116.559 C 191.092 116.417,193.400 116.084,193.400 116.011 C 193.400 115.987,194.718 115.884,196.330 115.784 C 199.646 115.576,202.024 115.310,202.208 115.125 C 202.423 114.911,217.766 115.106,218.400 115.331 M201.571 118.952 C 201.390 119.121,198.441 119.481,194.800 119.777 C 193.590 119.875,191.700 120.069,190.600 120.208 C 189.500 120.346,188.240 120.452,187.800 120.442 C 183.185 120.340,179.116 121.557,178.733 123.154 C 178.660 123.459,178.195 124.160,177.700 124.712 C 177.205 125.265,176.800 125.883,176.800 126.086 C 176.800 126.290,176.260 127.241,175.600 128.200 C 174.940 129.159,174.400 130.045,174.400 130.168 C 174.400 130.291,173.590 131.655,172.600 133.200 C 171.610 134.745,170.800 136.127,170.800 136.273 C 170.800 136.418,170.544 136.821,170.232 137.169 C 169.919 137.516,169.604 138.049,169.532 138.354 C 169.459 138.659,168.995 139.360,168.500 139.912 C 168.005 140.465,167.600 141.083,167.600 141.286 C 167.600 141.490,167.085 142.408,166.455 143.328 C 165.825 144.248,164.916 145.720,164.435 146.600 C 163.954 147.480,162.945 149.190,162.193 150.400 C 161.441 151.610,160.720 152.801,160.591 153.046 C 160.461 153.292,163.870 157.051,168.165 161.401 L 175.975 169.309 177.688 169.033 C 178.629 168.881,179.670 168.754,180.000 168.750 C 180.330 168.747,182.940 168.376,185.800 167.928 C 192.028 166.951,191.506 167.024,195.100 166.621 C 196.695 166.443,198.001 166.185,198.001 166.048 C 198.002 165.912,198.587 165.787,199.301 165.771 C 201.207 165.729,202.868 165.233,202.593 164.788 C 202.461 164.575,202.530 164.400,202.746 164.400 C 202.963 164.400,203.559 163.684,204.070 162.810 C 204.582 161.935,206.485 159.042,208.300 156.380 C 210.115 153.718,211.600 151.418,211.601 151.270 C 211.601 151.121,212.141 150.370,212.800 149.600 C 213.943 148.264,214.166 147.809,214.037 147.070 C 214.006 146.889,214.144 146.842,214.344 146.965 C 214.544 147.089,214.943 146.607,215.231 145.895 C 215.519 145.183,215.861 144.510,215.990 144.400 C 216.488 143.978,219.257 140.000,219.053 140.000 C 218.935 140.000,219.241 139.565,219.733 139.034 C 220.225 138.503,220.892 137.558,221.214 136.934 C 221.536 136.310,222.024 135.563,222.298 135.274 C 222.572 134.984,223.534 133.544,224.437 132.074 C 226.230 129.152,228.544 125.649,229.131 124.969 C 230.065 123.886,230.062 122.830,229.123 122.618 C 227.078 122.155,218.084 120.724,216.400 120.594 C 215.410 120.517,214.600 120.419,214.600 120.375 C 214.600 120.332,214.060 120.249,213.400 120.191 C 212.740 120.133,212.200 120.043,212.200 119.991 C 212.200 119.939,211.660 119.849,211.000 119.791 C 210.340 119.733,209.800 119.643,209.800 119.591 C 209.800 119.539,209.260 119.449,208.600 119.391 C 207.940 119.333,207.400 119.248,207.400 119.203 C 207.400 119.039,201.738 118.795,201.571 118.952 M238.800 124.392 C 238.800 124.607,238.090 125.721,237.223 126.867 C 236.356 128.013,235.736 129.097,235.847 129.275 C 235.957 129.454,235.854 129.600,235.619 129.600 C 235.200 129.600,232.895 132.809,231.501 135.334 C 231.116 136.030,230.801 136.442,230.801 136.249 C 230.800 136.057,229.774 137.407,228.520 139.249 C 227.266 141.092,225.916 142.949,225.520 143.375 C 225.124 143.802,224.800 144.304,224.800 144.492 C 224.800 144.680,224.446 145.213,224.014 145.677 C 223.581 146.141,223.322 146.674,223.437 146.861 C 223.553 147.047,223.454 147.200,223.219 147.200 C 222.800 147.200,220.495 150.409,219.101 152.934 C 218.716 153.630,218.401 154.029,218.401 153.820 C 218.400 153.610,217.864 154.240,217.208 155.220 C 214.311 159.547,213.861 160.182,213.152 160.944 C 212.738 161.388,212.400 161.987,212.400 162.275 C 212.400 162.564,212.209 162.800,211.976 162.800 C 211.743 162.800,211.664 162.980,211.800 163.200 C 211.936 163.420,211.895 163.600,211.709 163.600 C 211.523 163.600,210.696 164.504,209.871 165.608 L 208.372 167.617 209.364 168.917 C 209.909 169.632,210.770 170.585,211.278 171.035 C 211.785 171.485,212.920 172.718,213.800 173.776 C 216.477 176.992,218.512 179.295,220.400 181.246 C 221.390 182.269,222.273 183.262,222.362 183.453 C 223.140 185.127,224.992 186.745,225.951 186.588 C 227.958 186.260,230.216 186.004,232.800 185.809 C 234.230 185.702,235.940 185.523,236.600 185.412 C 237.260 185.301,238.790 185.137,240.000 185.047 C 241.210 184.957,243.754 184.752,245.654 184.591 L 249.109 184.297 261.088 172.249 C 267.677 165.622,274.486 158.760,276.219 157.000 C 277.952 155.240,278.837 154.434,278.185 155.208 C 277.533 155.983,278.383 155.181,280.073 153.426 C 283.346 150.028,283.372 149.957,281.692 149.081 C 281.091 148.768,278.890 147.470,276.800 146.196 C 274.710 144.922,272.783 143.877,272.517 143.873 C 272.252 143.870,271.942 143.627,271.830 143.333 C 271.717 143.040,271.349 142.800,271.013 142.800 C 270.676 142.800,270.400 142.661,270.400 142.492 C 270.400 142.322,269.545 141.737,268.500 141.192 C 267.455 140.646,266.510 140.097,266.400 139.971 C 266.112 139.641,264.654 139.062,264.300 139.136 C 264.135 139.171,264.000 139.048,264.000 138.863 C 264.000 138.478,258.641 135.200,258.012 135.200 C 257.786 135.200,257.600 135.020,257.600 134.800 C 257.600 134.580,257.255 134.400,256.833 134.400 C 256.412 134.400,256.007 134.265,255.933 134.100 C 255.749 133.685,252.503 131.600,252.042 131.600 C 251.836 131.600,251.607 131.445,251.533 131.256 C 251.460 131.067,250.140 130.199,248.600 129.328 C 244.083 126.771,243.851 126.633,242.856 125.905 C 242.333 125.523,241.719 125.326,241.491 125.467 C 241.263 125.608,241.194 125.533,241.338 125.301 C 241.486 125.061,241.054 124.688,240.340 124.439 C 238.808 123.905,238.800 123.905,238.800 124.392 M168.254 128.313 C 168.148 128.485,167.550 128.664,166.925 128.712 C 166.300 128.759,164.531 129.163,162.994 129.609 C 161.457 130.055,159.770 130.514,159.244 130.628 C 158.719 130.742,157.639 131.121,156.844 131.469 C 156.050 131.817,154.993 132.157,154.495 132.224 C 153.382 132.375,149.091 134.366,148.755 134.888 C 148.621 135.097,148.377 135.227,148.213 135.176 C 147.490 134.951,141.829 140.224,137.400 145.247 C 132.750 150.521,131.436 152.058,130.869 152.888 C 130.527 153.390,130.082 153.913,129.880 154.050 C 129.130 154.563,130.269 154.706,132.400 154.367 C 134.855 153.976,138.733 153.489,139.500 153.475 C 139.775 153.471,140.000 153.306,140.000 153.110 C 140.000 152.913,140.182 152.865,140.405 153.003 C 140.763 153.224,145.648 152.642,147.800 152.122 C 148.240 152.015,149.275 151.924,150.100 151.918 C 150.925 151.912,151.601 151.793,151.602 151.654 C 151.604 151.514,152.423 151.377,153.422 151.349 C 155.329 151.296,155.895 150.863,156.890 148.700 C 157.168 148.095,157.531 147.600,157.698 147.600 C 157.864 147.600,158.000 147.420,158.000 147.201 C 158.000 146.981,158.630 145.925,159.400 144.853 C 160.170 143.781,160.800 142.804,160.800 142.682 C 160.800 142.559,161.700 141.100,162.800 139.439 C 163.900 137.778,164.800 136.320,164.800 136.200 C 164.800 136.079,165.435 135.040,166.211 133.890 C 166.987 132.741,167.842 131.464,168.111 131.054 C 168.380 130.643,168.909 129.902,169.287 129.407 C 169.665 128.912,169.860 128.393,169.720 128.254 C 169.368 127.901,168.487 127.936,168.254 128.313 M49.475 136.659 C 49.326 136.808,48.618 136.957,47.902 136.991 C 46.125 137.075,40.800 138.774,40.800 139.257 C 40.800 139.472,40.634 139.544,40.430 139.419 C 40.227 139.293,39.262 139.615,38.286 140.134 C 37.310 140.653,36.171 141.190,35.755 141.327 C 35.340 141.464,34.730 141.734,34.400 141.926 C 34.070 142.118,33.440 142.455,33.000 142.674 C 24.378 146.971,15.360 154.607,11.123 161.200 C 7.119 167.429,5.765 169.852,5.926 170.500 C 5.967 170.665,5.820 170.800,5.600 170.800 C 5.380 170.800,5.231 170.935,5.270 171.100 C 5.371 171.533,4.289 173.747,3.808 174.094 C 3.543 174.285,3.540 174.392,3.800 174.400 C 4.048 174.408,4.039 174.524,3.778 174.706 C 3.313 175.030,1.824 178.099,0.919 180.600 C -0.582 184.746,-0.108 195.342,1.675 197.490 C 1.908 197.771,2.007 198.000,1.897 198.000 C 1.786 198.000,2.376 200.148,3.208 202.773 C 4.700 207.486,5.760 209.354,8.496 212.100 C 9.099 212.705,9.463 213.200,9.305 213.200 C 8.916 213.200,10.541 214.811,13.137 216.999 C 14.313 217.990,15.466 218.683,15.699 218.539 C 15.939 218.391,16.007 218.465,15.856 218.709 C 15.705 218.953,15.985 219.263,16.494 219.419 C 16.992 219.570,17.746 219.988,18.169 220.347 C 18.783 220.869,18.871 220.880,18.604 220.400 C 18.419 220.067,18.700 220.174,19.235 220.640 C 20.167 221.452,21.013 221.880,21.755 221.915 C 21.951 221.924,22.221 222.082,22.355 222.266 C 23.481 223.803,24.389 224.065,31.800 224.990 C 32.680 225.099,34.120 225.302,35.000 225.439 C 37.805 225.878,42.343 224.825,44.041 223.342 C 44.968 222.533,46.890 218.869,46.618 218.429 C 46.491 218.223,46.573 217.940,46.800 217.800 C 47.027 217.660,47.109 217.377,46.983 217.172 C 46.856 216.968,46.964 216.800,47.223 216.800 C 47.493 216.800,47.606 216.467,47.489 216.019 C 47.377 215.590,47.429 215.185,47.606 215.119 C 47.782 215.054,47.988 214.640,48.063 214.200 C 48.139 213.760,48.294 213.310,48.409 213.200 C 48.524 213.090,48.920 212.526,49.288 211.947 C 50.139 210.607,52.159 209.828,52.795 210.594 C 53.414 211.340,53.765 213.821,53.372 214.683 C 53.193 215.077,53.019 215.580,52.985 215.800 C 52.952 216.020,52.712 216.720,52.452 217.355 C 52.191 217.990,51.933 218.800,51.878 219.155 C 51.822 219.510,51.664 219.980,51.526 220.201 C 50.136 222.423,52.251 226.511,55.065 227.039 C 56.324 227.275,61.378 226.978,61.952 226.634 C 62.088 226.553,63.084 226.368,64.163 226.223 C 65.243 226.079,66.458 225.783,66.863 225.566 C 67.269 225.349,67.600 225.256,67.600 225.358 C 67.600 225.460,68.185 225.366,68.900 225.149 C 69.615 224.931,70.650 224.669,71.200 224.565 C 71.750 224.462,72.470 224.275,72.800 224.149 C 73.130 224.024,73.940 223.832,74.600 223.721 C 75.260 223.611,76.087 223.367,76.438 223.179 C 76.789 222.992,77.528 222.756,78.080 222.656 C 79.287 222.437,83.318 221.082,83.600 220.800 C 83.710 220.690,84.070 220.565,84.400 220.522 C 85.668 220.356,89.775 218.765,90.405 218.196 C 90.768 217.867,91.167 217.700,91.291 217.825 C 92.069 218.602,99.863 213.513,100.865 211.573 C 101.884 209.602,101.939 203.137,100.966 199.923 C 100.436 198.174,100.204 181.570,100.663 178.286 C 100.969 176.099,100.969 176.101,101.964 172.843 C 102.998 169.461,103.081 169.136,103.824 165.600 C 105.107 159.497,104.316 157.188,99.742 153.673 C 98.831 152.973,97.886 152.400,97.642 152.400 C 97.399 152.400,97.200 152.262,97.200 152.093 C 97.200 151.689,92.803 149.067,92.126 149.067 C 91.837 149.067,91.600 148.941,91.600 148.788 C 91.600 148.635,90.400 147.919,88.934 147.197 C 87.468 146.475,85.421 145.358,84.385 144.715 C 83.350 144.071,82.255 143.498,81.951 143.441 C 81.648 143.384,80.770 143.054,80.000 142.709 C 79.230 142.363,77.790 141.768,76.800 141.386 C 75.810 141.003,74.204 140.339,73.231 139.911 C 72.257 139.482,71.087 139.081,70.631 139.019 C 70.174 138.958,69.260 138.686,68.600 138.414 C 67.940 138.143,67.220 137.877,67.000 137.823 C 66.780 137.769,66.150 137.600,65.600 137.448 C 63.077 136.749,50.023 136.110,49.475 136.659 M348.200 139.444 C 346.660 139.750,344.860 140.106,344.200 140.235 C 343.540 140.363,340.930 141.004,338.400 141.660 C 335.870 142.315,333.363 142.939,332.828 143.047 C 332.293 143.154,331.663 143.362,331.428 143.510 C 330.833 143.882,329.959 144.063,328.900 144.034 C 328.405 144.020,328.000 144.181,328.000 144.392 C 328.000 144.603,327.748 144.678,327.440 144.560 C 327.133 144.442,326.760 144.541,326.613 144.779 C 326.465 145.018,326.174 145.107,325.965 144.978 C 325.755 144.849,324.913 144.973,324.092 145.255 C 323.271 145.536,322.465 145.796,322.300 145.833 C 322.135 145.870,321.910 145.945,321.800 146.000 C 321.690 146.055,321.465 146.133,321.300 146.174 C 320.265 146.431,317.722 147.738,317.135 148.315 C 316.752 148.692,316.162 149.230,315.824 149.511 C 315.001 150.196,314.533 152.111,315.139 152.313 C 315.395 152.398,315.532 152.588,315.443 152.734 C 315.354 152.880,315.578 153.567,315.941 154.260 C 316.303 154.953,316.944 156.186,317.365 157.000 C 317.785 157.814,318.706 159.092,319.412 159.840 C 320.117 160.588,320.610 161.200,320.506 161.200 C 320.402 161.200,320.831 161.821,321.459 162.580 C 322.086 163.339,322.960 164.437,323.400 165.019 C 323.840 165.601,324.628 166.555,325.151 167.139 C 325.674 167.722,326.572 168.920,327.147 169.800 C 327.722 170.680,328.315 171.492,328.465 171.604 C 328.614 171.716,328.866 172.346,329.023 173.004 C 329.181 173.662,329.448 174.380,329.616 174.600 C 329.784 174.820,330.126 175.765,330.376 176.700 C 330.626 177.635,330.974 178.400,331.149 178.400 C 331.324 178.400,331.467 178.650,331.467 178.956 C 331.467 179.846,332.461 182.000,332.872 182.000 C 333.078 182.000,333.136 182.180,333.000 182.400 C 332.864 182.620,332.973 182.800,333.243 182.800 C 333.513 182.800,333.618 182.915,333.477 183.056 C 333.170 183.364,334.429 185.600,334.910 185.600 C 335.095 185.600,335.154 185.751,335.040 185.935 C 334.821 186.289,338.793 190.800,339.323 190.800 C 339.493 190.800,340.163 191.192,340.811 191.672 C 341.460 192.151,342.104 192.430,342.243 192.291 C 342.382 192.152,342.757 192.300,343.076 192.619 C 343.571 193.113,345.029 193.416,346.100 193.247 C 346.265 193.221,346.400 193.350,346.400 193.533 C 346.400 193.717,346.625 193.892,346.900 193.922 C 347.175 193.953,348.570 194.250,350.000 194.582 C 352.671 195.202,355.287 195.642,357.400 195.826 C 358.060 195.884,358.600 195.970,358.600 196.017 C 358.600 196.343,368.488 197.221,373.600 197.349 C 375.228 197.389,380.543 196.917,382.000 196.602 C 382.550 196.483,383.630 196.282,384.400 196.156 C 385.170 196.030,385.860 195.762,385.934 195.561 C 386.008 195.360,386.235 195.298,386.438 195.424 C 387.529 196.098,392.425 192.709,394.815 189.625 C 396.738 187.143,398.625 183.123,398.863 181.000 C 398.937 180.340,399.178 179.671,399.399 179.514 C 400.074 179.033,399.907 166.002,399.210 164.800 C 398.891 164.250,398.676 163.642,398.732 163.450 C 398.788 163.257,398.555 162.793,398.216 162.417 C 397.876 162.042,397.686 161.647,397.793 161.540 C 398.359 160.974,393.264 153.183,391.822 152.412 C 391.260 152.111,390.800 151.732,390.800 151.569 C 390.800 151.407,389.990 150.762,389.001 150.137 C 388.011 149.512,387.201 148.865,387.201 148.700 C 387.200 148.535,387.009 148.400,386.777 148.400 C 386.544 148.400,385.689 147.874,384.877 147.232 C 384.064 146.589,382.634 145.670,381.698 145.190 C 380.762 144.710,379.894 144.153,379.770 143.952 C 379.646 143.751,379.390 143.683,379.200 143.800 C 379.010 143.917,378.745 143.835,378.611 143.618 C 377.982 142.601,370.485 140.128,369.350 140.564 C 369.048 140.680,368.800 140.631,368.800 140.454 C 368.800 140.278,368.575 140.127,368.300 140.120 C 367.564 140.100,363.611 139.560,362.639 139.346 C 360.419 138.858,350.820 138.923,348.200 139.444 M285.800 155.441 C 285.360 155.779,285.045 156.224,285.100 156.428 C 285.155 156.633,284.951 156.800,284.646 156.800 C 284.341 156.800,283.825 157.205,283.498 157.700 C 283.171 158.195,282.025 159.510,280.952 160.621 C 276.827 164.893,274.199 167.742,274.176 167.966 C 274.162 168.095,273.037 169.327,271.676 170.705 C 270.314 172.083,269.200 173.399,269.200 173.629 C 269.200 173.859,269.040 173.948,268.845 173.828 C 268.649 173.707,268.040 174.191,267.492 174.904 C 266.943 175.617,265.528 177.205,264.347 178.433 C 262.341 180.519,260.912 182.124,259.683 183.672 C 259.248 184.220,259.311 184.481,260.083 185.329 C 261.158 186.510,262.041 187.617,262.600 188.484 C 263.818 190.376,268.160 195.687,268.639 195.870 C 268.948 195.989,269.200 196.302,269.200 196.567 C 269.200 196.832,269.520 197.398,269.912 197.825 C 270.304 198.251,271.134 199.273,271.757 200.096 C 272.379 200.919,273.017 201.513,273.173 201.417 C 273.581 201.164,275.494 200.810,277.800 200.559 C 280.110 200.307,280.502 200.249,282.400 199.873 C 283.170 199.720,284.520 199.512,285.400 199.411 C 290.248 198.852,291.419 198.670,291.600 198.447 C 291.710 198.311,292.340 198.184,293.000 198.165 C 294.067 198.134,296.260 197.800,296.800 197.587 C 296.910 197.543,297.295 197.537,297.656 197.572 C 298.414 197.645,300.478 195.282,301.552 193.111 C 301.957 192.292,302.404 191.737,302.544 191.878 C 302.685 192.018,302.800 191.833,302.800 191.467 C 302.800 191.100,302.980 190.800,303.200 190.800 C 303.420 190.800,303.600 190.530,303.600 190.200 C 303.600 189.870,303.777 189.600,303.992 189.600 C 304.208 189.600,304.500 189.142,304.640 188.581 C 304.781 188.021,304.995 187.662,305.117 187.784 C 305.397 188.064,307.596 184.778,307.598 184.076 C 307.599 183.788,307.766 183.656,307.970 183.781 C 309.524 184.742,308.273 181.653,306.025 178.980 C 305.461 178.309,304.370 176.975,303.600 176.014 C 302.830 175.054,302.020 174.073,301.800 173.834 C 301.580 173.595,300.876 172.680,300.236 171.800 C 299.596 170.920,298.623 169.795,298.074 169.300 C 297.525 168.805,297.206 168.400,297.366 168.400 C 297.526 168.400,297.419 168.135,297.129 167.810 C 296.838 167.486,296.240 166.748,295.800 166.171 C 295.360 165.595,294.640 164.699,294.200 164.180 C 293.760 163.662,293.040 162.769,292.600 162.196 C 290.810 159.866,289.731 158.596,288.400 157.255 C 287.630 156.479,287.270 156.000,287.600 156.191 C 287.974 156.407,287.913 156.211,287.438 155.669 C 287.019 155.191,286.659 154.806,286.638 154.813 C 286.617 154.820,286.240 155.102,285.800 155.441 M152.801 156.050 C 152.031 156.209,150.235 156.459,148.809 156.604 C 147.384 156.750,144.593 157.126,142.609 157.440 C 140.624 157.754,138.100 158.109,137.000 158.228 C 134.731 158.473,133.492 158.656,133.200 158.789 C 132.996 158.881,131.478 159.024,129.500 159.137 C 128.895 159.172,128.437 159.335,128.483 159.500 C 128.529 159.665,128.165 160.852,127.675 162.137 C 127.185 163.422,126.711 164.862,126.622 165.337 C 126.532 165.812,126.424 166.245,126.380 166.300 C 126.336 166.355,126.262 166.535,126.215 166.700 C 126.169 166.865,125.998 167.301,125.835 167.669 C 125.672 168.037,125.502 168.577,125.458 168.869 C 125.414 169.161,125.272 169.580,125.142 169.800 C 124.849 170.300,122.772 176.583,122.593 177.514 C 122.521 177.891,122.425 178.245,122.381 178.300 C 122.336 178.355,122.255 178.580,122.200 178.800 C 122.145 179.020,122.055 179.290,122.000 179.400 C 121.945 179.510,121.855 179.780,121.800 180.000 C 121.745 180.220,121.655 180.490,121.600 180.600 C 121.545 180.710,121.455 180.980,121.400 181.200 C 121.345 181.420,121.255 181.690,121.200 181.800 C 121.145 181.910,121.055 182.180,121.000 182.400 C 120.945 182.620,120.855 182.890,120.800 183.000 C 120.745 183.110,120.655 183.380,120.600 183.600 C 120.545 183.820,120.464 184.045,120.420 184.100 C 119.883 184.773,120.218 186.061,121.214 187.151 C 121.866 187.865,122.400 188.602,122.400 188.789 C 122.400 188.976,122.940 189.583,123.600 190.139 C 124.260 190.694,124.800 191.330,124.800 191.551 C 124.800 191.773,125.136 192.190,125.546 192.477 C 125.957 192.765,126.298 193.151,126.305 193.336 C 126.312 193.520,126.651 194.064,127.059 194.544 C 127.467 195.023,128.322 196.132,128.960 197.008 C 129.598 197.884,130.328 198.780,130.582 199.000 C 130.837 199.220,131.802 200.429,132.726 201.688 C 135.883 205.984,135.245 205.788,143.393 204.959 C 144.490 204.848,147.280 204.683,149.593 204.593 C 153.430 204.444,155.663 204.297,161.966 203.779 C 163.157 203.681,164.231 203.503,164.351 203.382 C 164.809 202.924,165.960 199.460,165.761 199.138 C 165.647 198.952,165.729 198.800,165.945 198.800 C 166.160 198.800,166.455 198.258,166.601 197.596 C 166.746 196.934,167.133 195.856,167.459 195.201 C 167.786 194.546,167.950 193.843,167.824 193.639 C 167.698 193.435,167.773 193.208,167.990 193.134 C 168.498 192.961,170.476 186.374,170.219 185.706 C 170.113 185.428,170.161 185.200,170.327 185.200 C 170.628 185.200,170.744 184.722,170.912 182.800 C 170.961 182.250,171.117 181.710,171.260 181.600 C 171.520 181.400,172.037 178.993,172.183 177.303 C 172.226 176.809,172.382 176.284,172.530 176.136 C 173.186 175.480,172.683 174.164,171.257 172.808 C 170.408 172.000,169.643 171.138,169.557 170.891 C 169.395 170.428,165.468 165.956,162.529 162.888 C 161.610 161.928,160.857 161.056,160.855 160.948 C 160.853 160.841,159.809 159.594,158.534 158.177 C 156.088 155.460,155.934 155.402,152.801 156.050 M202.400 170.854 C 201.410 171.049,200.330 171.217,200.000 171.228 C 199.670 171.239,198.230 171.417,196.800 171.624 C 195.370 171.830,193.570 172.065,192.800 172.146 C 189.013 172.543,183.333 173.306,182.800 173.488 C 182.254 173.674,180.973 173.853,178.482 174.090 C 176.996 174.232,176.694 174.903,173.213 185.800 C 171.386 191.520,169.714 196.425,169.497 196.700 C 169.280 196.975,169.236 197.200,169.400 197.200 C 169.564 197.200,169.451 197.498,169.149 197.861 C 168.847 198.225,168.645 198.585,168.700 198.661 C 168.755 198.738,168.787 198.845,168.770 198.900 C 168.459 199.947,168.511 200.860,168.906 201.277 C 169.178 201.565,169.892 202.459,170.494 203.265 C 171.096 204.071,171.816 204.971,172.094 205.265 C 172.372 205.559,173.343 206.790,174.251 208.000 C 175.159 209.210,176.295 210.650,176.775 211.200 C 178.823 213.546,179.200 214.019,179.200 214.247 C 179.200 214.379,179.553 214.873,179.984 215.344 C 180.415 215.815,181.511 217.160,182.420 218.334 L 184.073 220.468 186.936 220.264 C 188.511 220.151,191.780 219.962,194.200 219.843 C 199.785 219.568,207.794 218.971,208.400 218.784 C 208.510 218.750,209.263 218.753,210.073 218.790 C 211.855 218.871,213.346 218.158,213.044 217.369 C 212.923 217.056,212.981 216.800,213.172 216.800 C 213.362 216.800,214.189 214.775,215.009 212.300 C 215.828 209.825,216.760 207.288,217.079 206.663 C 217.398 206.037,217.557 205.424,217.433 205.300 C 217.309 205.175,217.407 204.832,217.652 204.537 C 217.897 204.242,217.964 204.000,217.800 204.000 C 217.636 204.000,217.724 203.732,217.996 203.405 C 218.267 203.078,218.385 202.538,218.257 202.205 C 218.130 201.872,218.162 201.600,218.330 201.600 C 218.716 201.600,219.654 197.211,219.367 196.746 C 219.249 196.556,219.315 196.400,219.514 196.400 C 219.712 196.400,220.196 194.871,220.588 193.003 L 221.301 189.605 219.889 187.903 C 219.112 186.966,217.875 185.535,217.138 184.723 C 216.402 183.911,214.810 182.115,213.600 180.732 C 212.390 179.349,210.659 177.448,209.753 176.509 C 208.847 175.569,208.199 174.800,208.314 174.800 C 208.429 174.800,208.171 174.485,207.741 174.100 C 207.311 173.715,206.452 172.725,205.832 171.900 C 205.212 171.075,204.591 170.423,204.453 170.450 C 204.314 170.478,203.390 170.659,202.400 170.854 M45.600 177.300 C 45.600 177.465,45.984 177.600,46.453 177.600 C 47.719 177.600,49.848 179.060,50.780 180.567 C 51.515 181.757,51.932 184.400,51.384 184.400 C 51.127 184.400,48.854 182.815,48.079 182.096 C 47.780 181.819,47.385 181.685,47.202 181.799 C 47.018 181.912,46.803 181.809,46.724 181.571 C 46.238 180.115,41.219 181.181,39.240 183.160 C 38.778 183.622,38.400 183.898,38.400 183.773 C 38.400 183.648,37.905 183.888,37.300 184.308 C 35.136 185.807,34.734 185.769,35.033 184.094 C 35.343 182.359,37.514 179.230,38.420 179.212 C 38.761 179.206,39.249 178.991,39.504 178.736 C 40.571 177.669,45.600 176.485,45.600 177.300 M252.659 186.274 C 252.540 186.393,251.578 186.548,250.521 186.618 C 248.397 186.758,244.678 187.189,243.414 187.442 C 242.966 187.531,241.911 187.693,241.069 187.802 C 240.226 187.911,239.106 188.109,238.579 188.241 C 238.052 188.373,236.942 188.530,236.111 188.589 C 231.711 188.904,228.400 189.345,228.400 189.618 C 228.400 189.787,228.040 189.831,227.601 189.716 C 226.785 189.503,224.542 190.675,224.962 191.095 C 225.089 191.222,224.993 191.568,224.748 191.863 C 224.503 192.158,224.436 192.400,224.600 192.400 C 224.764 192.400,224.674 192.670,224.400 193.000 C 224.126 193.330,224.036 193.600,224.200 193.600 C 224.364 193.600,224.299 193.839,224.057 194.131 C 223.814 194.424,223.536 195.099,223.438 195.631 C 223.340 196.164,223.232 196.600,223.199 196.600 C 223.166 196.600,223.066 196.870,222.978 197.200 C 222.889 197.530,221.465 201.850,219.813 206.800 C 216.332 217.233,216.463 216.445,218.000 217.739 C 218.660 218.294,219.200 218.875,219.200 219.029 C 219.200 219.389,222.217 223.285,223.860 225.048 C 224.553 225.792,225.046 226.400,224.955 226.400 C 224.809 226.400,228.455 231.087,231.399 234.683 L 232.449 235.966 236.125 235.805 C 239.412 235.661,244.447 235.344,249.600 234.957 C 250.590 234.883,253.470 234.716,256.000 234.586 C 258.530 234.456,260.716 234.227,260.857 234.075 C 261.376 233.520,263.156 228.652,262.958 228.331 C 262.845 228.149,262.929 228.000,263.144 228.000 C 263.360 228.000,263.836 227.055,264.203 225.900 C 264.570 224.745,265.107 223.260,265.397 222.600 C 266.152 220.879,266.695 218.713,266.575 217.900 C 266.517 217.515,266.611 217.200,266.783 217.200 C 267.059 217.200,267.483 215.298,267.718 213.000 C 267.763 212.560,267.917 212.110,268.060 212.000 C 268.341 211.784,268.888 209.161,268.957 207.700 C 268.981 207.205,269.135 206.800,269.300 206.800 C 270.436 206.800,269.337 204.580,267.030 202.216 C 265.617 200.768,264.402 199.426,264.330 199.235 C 264.146 198.744,260.231 194.316,257.500 191.509 C 256.235 190.209,255.200 189.046,255.200 188.926 C 255.200 188.493,252.871 186.062,252.659 186.274 M307.250 195.397 L 303.941 198.793 304.842 200.097 C 305.338 200.813,307.059 202.714,308.667 204.320 C 310.274 205.927,311.367 207.126,311.095 206.985 C 310.823 206.844,311.285 207.386,312.122 208.190 C 313.980 209.974,315.525 209.466,314.456 207.424 C 314.347 207.217,314.221 206.477,314.174 205.780 C 314.127 205.082,313.986 204.171,313.859 203.756 C 313.732 203.340,313.525 202.370,313.399 201.600 C 313.272 200.830,312.805 198.836,312.359 197.168 C 311.611 194.367,311.308 193.063,311.231 192.300 C 311.157 191.583,310.362 192.202,307.250 195.397 M123.620 205.325 L 123.576 212.600 125.339 216.000 C 128.680 222.446,129.042 222.851,129.622 220.775 C 130.940 216.059,131.288 214.896,131.590 214.200 C 133.518 209.749,133.367 209.173,129.100 204.729 C 128.715 204.328,128.406 203.906,128.413 203.790 C 128.428 203.549,126.535 200.972,125.500 199.825 C 125.115 199.398,124.800 198.922,124.800 198.767 C 124.800 198.612,124.544 198.388,124.232 198.268 C 123.755 198.085,123.657 199.218,123.620 205.325 M301.534 201.385 C 301.460 201.451,300.320 201.618,299.000 201.757 C 297.680 201.896,296.150 202.084,295.600 202.176 C 294.662 202.333,293.626 202.467,289.200 203.009 C 288.210 203.130,286.860 203.325,286.200 203.442 C 283.587 203.906,281.479 204.210,278.400 204.568 C 272.262 205.280,272.540 205.180,272.241 206.809 C 272.141 207.354,272.024 207.845,271.980 207.900 C 271.936 207.955,271.855 208.180,271.800 208.400 C 271.745 208.620,271.655 208.890,271.600 209.000 C 271.545 209.110,271.455 209.380,271.400 209.600 C 271.345 209.820,271.255 210.090,271.200 210.200 C 271.145 210.310,271.055 210.580,271.000 210.800 C 270.945 211.020,270.855 211.290,270.800 211.400 C 270.745 211.510,270.655 211.780,270.600 212.000 C 270.545 212.220,270.455 212.490,270.400 212.600 C 270.345 212.710,270.255 212.980,270.200 213.200 C 270.145 213.420,270.073 213.645,270.040 213.700 C 270.007 213.755,268.557 218.112,266.817 223.381 L 263.654 232.963 264.664 233.973 C 265.220 234.529,265.932 235.482,266.247 236.092 C 266.563 236.701,266.968 237.200,267.149 237.200 C 267.330 237.200,267.640 237.537,267.839 237.949 C 268.037 238.361,268.772 239.396,269.472 240.249 C 270.171 241.102,271.844 243.202,273.188 244.915 C 274.533 246.628,275.884 248.338,276.192 248.715 C 276.499 249.092,277.497 250.358,278.408 251.529 L 280.065 253.659 289.532 253.402 C 294.740 253.261,300.388 253.172,302.085 253.203 C 305.599 253.268,305.838 253.122,308.631 249.200 C 309.493 247.990,310.416 246.730,310.682 246.400 C 312.837 243.730,313.600 242.611,313.600 242.121 C 313.600 241.809,313.775 241.661,313.988 241.793 C 314.202 241.925,314.491 241.577,314.631 241.019 C 314.771 240.462,315.022 240.090,315.189 240.193 C 315.355 240.296,315.895 238.360,316.387 235.890 C 316.880 233.421,317.369 231.040,317.474 230.600 C 317.579 230.160,317.721 229.260,317.789 228.600 C 317.857 227.940,318.008 227.130,318.125 226.800 C 318.242 226.470,318.471 225.480,318.633 224.600 C 318.796 223.720,318.979 222.736,319.042 222.413 C 319.220 221.485,317.973 219.200,317.288 219.200 C 316.946 219.200,316.783 219.083,316.926 218.941 C 317.069 218.798,316.872 218.393,316.488 218.041 C 316.104 217.688,314.803 216.232,313.595 214.804 C 312.388 213.376,311.040 211.818,310.600 211.341 C 310.160 210.864,308.878 209.422,307.750 208.137 C 303.094 202.829,301.661 201.272,301.534 201.385 M159.800 207.067 C 159.360 207.166,158.730 207.355,158.400 207.488 C 158.070 207.621,157.344 207.763,156.786 207.804 C 155.944 207.866,153.134 208.375,152.400 208.599 C 152.290 208.632,151.343 208.802,150.295 208.976 C 149.247 209.150,148.290 209.454,148.167 209.653 C 148.045 209.851,147.783 209.913,147.585 209.791 C 147.387 209.668,146.185 209.861,144.913 210.218 C 143.641 210.575,142.150 210.908,141.600 210.958 C 137.900 211.297,136.793 211.689,136.546 212.746 C 136.411 213.326,136.053 214.783,135.750 215.985 C 135.447 217.187,135.090 218.987,134.957 219.985 C 134.823 220.983,134.646 221.914,134.562 222.053 C 134.479 222.193,134.298 223.003,134.160 223.853 C 133.852 225.753,133.686 226.569,133.581 226.700 C 133.536 226.755,133.467 226.935,133.427 227.100 C 132.685 230.168,132.662 230.035,134.601 233.863 C 135.642 235.918,136.682 237.600,136.913 237.600 C 137.144 237.600,137.228 237.705,137.100 237.833 C 136.650 238.283,140.511 245.018,142.146 246.635 C 143.056 247.535,144.667 249.200,145.727 250.335 C 146.787 251.471,147.833 252.400,148.051 252.400 C 148.269 252.400,148.343 252.569,148.215 252.775 C 148.088 252.982,148.212 253.297,148.492 253.475 C 148.771 253.654,150.035 254.912,151.300 256.270 C 152.565 257.629,153.600 258.664,153.600 258.570 C 153.600 258.477,153.931 258.715,154.337 259.100 C 154.742 259.485,155.016 259.911,154.946 260.047 C 154.653 260.616,162.207 264.800,163.528 264.800 C 163.751 264.800,163.993 264.946,164.067 265.125 C 164.233 265.530,172.089 269.408,172.500 269.288 C 172.665 269.240,172.800 269.391,172.800 269.624 C 172.800 269.857,172.980 269.936,173.200 269.800 C 173.420 269.664,173.600 269.754,173.600 270.000 C 173.600 270.246,173.780 270.336,174.000 270.200 C 174.220 270.064,174.400 270.154,174.400 270.400 C 174.400 270.646,174.580 270.736,174.800 270.600 C 175.020 270.464,175.200 270.554,175.200 270.800 C 175.200 271.046,175.380 271.136,175.600 271.000 C 175.820 270.864,176.000 270.943,176.000 271.176 C 176.000 272.196,177.202 271.534,177.228 270.500 C 177.255 269.407,177.355 268.461,177.769 265.400 C 177.888 264.520,178.091 262.450,178.220 260.800 C 178.349 259.150,178.525 257.530,178.611 257.200 C 178.698 256.870,178.882 255.173,179.021 253.428 C 179.160 251.683,179.332 249.952,179.404 249.581 C 179.661 248.246,180.404 241.346,180.565 238.800 C 180.655 237.370,180.832 235.930,180.957 235.600 C 181.083 235.270,181.260 233.528,181.351 231.729 C 181.442 229.930,181.608 228.310,181.720 228.129 C 182.407 227.015,181.743 223.628,180.673 222.786 C 180.061 222.304,178.530 220.896,177.271 219.655 C 173.968 216.400,171.672 214.461,171.420 214.714 C 171.299 214.834,171.200 214.633,171.200 214.267 C 171.200 213.900,171.055 213.600,170.877 213.600 C 170.591 213.600,169.837 212.948,165.536 208.981 C 164.951 208.442,164.295 208.000,164.079 208.000 C 163.862 208.000,163.597 207.768,163.488 207.485 C 163.288 206.964,161.273 206.736,159.800 207.067 M213.466 223.868 C 213.318 224.016,212.522 224.170,211.698 224.211 C 210.874 224.253,210.200 224.326,210.200 224.374 C 210.200 224.422,209.300 224.520,208.200 224.591 C 207.100 224.662,205.210 224.856,204.000 225.021 C 202.790 225.187,201.350 225.362,200.800 225.410 C 200.250 225.458,199.710 225.538,199.600 225.587 C 199.490 225.637,198.770 225.681,198.000 225.684 C 197.230 225.687,196.438 225.787,196.240 225.906 C 196.042 226.024,195.232 226.174,194.440 226.238 C 189.056 226.673,188.171 226.853,188.126 227.523 C 188.101 227.895,187.982 228.830,187.862 229.600 C 187.397 232.564,187.088 235.056,187.014 236.427 C 186.972 237.212,186.803 238.071,186.639 238.336 C 186.476 238.601,186.374 239.309,186.413 239.909 C 186.453 240.509,186.451 241.090,186.409 241.200 C 186.286 241.525,186.042 243.272,185.851 245.200 C 185.753 246.190,185.577 247.270,185.460 247.600 C 184.895 249.198,184.499 255.948,184.435 265.085 L 184.364 275.171 185.482 275.163 C 186.097 275.159,187.680 275.243,189.000 275.350 C 190.320 275.457,194.730 275.661,198.800 275.804 C 202.870 275.947,207.640 276.129,209.400 276.207 C 211.160 276.285,215.930 276.465,220.000 276.606 C 224.070 276.746,228.068 276.899,228.886 276.945 L 230.371 277.028 230.392 257.742 L 230.414 238.456 227.307 235.714 C 225.598 234.205,223.030 231.854,221.600 230.490 C 220.170 229.126,218.745 228.007,218.433 228.005 C 218.122 228.002,217.971 227.896,218.099 227.768 C 218.297 227.570,216.825 226.130,214.368 224.116 C 214.020 223.831,213.614 223.719,213.466 223.868 M103.371 233.580 C 101.694 233.975,99.600 234.929,99.600 235.298 C 99.600 235.464,99.407 235.600,99.172 235.600 C 97.690 235.600,87.200 245.229,87.200 246.589 C 87.200 246.925,87.041 247.200,86.847 247.200 C 86.489 247.200,83.000 252.323,83.000 252.848 C 83.000 253.005,82.865 253.269,82.699 253.434 C 82.220 253.913,79.600 259.578,79.600 260.135 C 79.600 260.413,79.435 260.811,79.233 261.020 C 79.031 261.229,78.780 261.940,78.675 262.600 C 78.570 263.260,78.125 264.790,77.686 266.000 C 74.539 274.680,73.959 278.348,73.761 290.807 C 73.650 297.785,73.749 302.233,74.049 303.807 C 74.300 305.123,74.512 306.785,74.520 307.500 C 74.527 308.215,74.638 308.800,74.767 308.800 C 74.895 308.800,75.019 309.295,75.042 309.900 C 75.115 311.779,75.364 313.200,75.620 313.200 C 75.756 313.200,75.838 313.587,75.803 314.059 C 75.742 314.894,77.350 322.072,77.740 322.703 C 77.847 322.876,78.053 323.823,78.198 324.808 C 78.343 325.794,78.618 326.657,78.809 326.726 C 78.999 326.795,79.063 327.092,78.950 327.385 C 78.838 327.679,78.941 328.040,79.179 328.187 C 79.418 328.335,79.527 328.595,79.422 328.765 C 79.131 329.234,80.001 332.112,80.656 332.850 C 80.974 333.207,81.186 333.657,81.128 333.850 C 80.749 335.107,88.338 346.757,89.570 346.810 C 89.696 346.815,90.737 347.670,91.881 348.710 C 93.026 349.749,94.826 351.050,95.881 351.600 C 96.936 352.150,97.979 352.819,98.199 353.086 C 98.693 353.685,104.717 356.443,105.692 356.517 C 106.081 356.546,106.400 356.694,106.400 356.846 C 106.400 357.243,108.825 358.032,109.246 357.772 C 109.441 357.651,109.600 357.707,109.600 357.896 C 109.600 358.833,114.003 359.565,115.176 358.823 C 116.184 358.186,116.108 352.603,115.038 348.600 C 114.979 348.380,114.791 347.345,114.620 346.300 C 114.449 345.255,114.186 344.400,114.035 344.400 C 113.884 344.400,113.738 343.995,113.711 343.500 C 113.685 343.005,113.463 341.880,113.218 341.000 C 112.974 340.120,112.702 338.540,112.614 337.488 C 112.472 335.791,111.999 333.798,111.309 332.000 C 111.183 331.670,111.027 331.130,110.963 330.800 C 110.656 329.216,110.395 327.658,110.193 326.200 C 110.070 325.320,109.801 323.755,109.594 322.723 C 109.388 321.691,109.105 319.351,108.967 317.523 C 108.828 315.695,108.624 314.051,108.514 313.868 C 108.281 313.482,108.351 305.051,108.610 302.400 C 108.825 300.187,109.466 297.212,110.265 294.717 C 110.597 293.681,110.762 292.662,110.632 292.451 C 110.501 292.241,110.580 292.007,110.806 291.931 C 111.032 291.856,111.258 291.211,111.308 290.498 C 111.359 289.785,111.535 289.201,111.700 289.201 C 111.865 289.200,111.979 289.065,111.953 288.900 C 111.927 288.735,111.949 288.465,112.003 288.300 C 112.056 288.135,112.130 287.865,112.167 287.700 C 112.362 286.826,113.343 284.034,113.855 282.896 C 114.178 282.178,114.332 281.413,114.197 281.196 C 114.063 280.978,114.098 280.798,114.276 280.797 C 114.454 280.795,114.943 279.670,115.361 278.297 C 115.780 276.923,116.286 275.588,116.485 275.330 C 116.685 275.071,116.915 274.351,116.997 273.730 C 117.078 273.108,117.180 272.555,117.222 272.500 C 117.265 272.445,117.345 272.220,117.400 272.000 C 117.455 271.780,117.545 271.510,117.600 271.400 C 117.655 271.290,117.725 271.065,117.756 270.900 C 117.787 270.735,117.955 270.375,118.130 270.100 C 118.304 269.825,118.302 269.597,118.124 269.594 C 117.946 269.591,117.996 269.456,118.235 269.294 C 120.096 268.038,121.797 255.160,120.414 252.800 C 119.855 251.845,119.764 251.616,119.650 250.874 C 119.597 250.531,116.304 245.534,115.482 244.552 C 115.217 244.234,114.325 243.246,113.500 242.355 C 112.675 241.464,112.000 240.580,112.000 240.390 C 112.000 240.200,111.669 239.810,111.263 239.523 C 110.858 239.235,110.309 238.590,110.043 238.089 C 109.776 237.585,109.363 237.300,109.118 237.451 C 108.875 237.601,108.784 237.550,108.915 237.338 C 109.747 235.992,105.462 233.087,103.371 233.580 M258.694 238.639 C 258.547 238.786,257.296 238.953,255.913 239.010 C 254.531 239.066,252.410 239.222,251.200 239.357 C 249.990 239.491,248.010 239.689,246.800 239.797 C 244.509 240.000,240.381 240.438,239.000 240.625 C 238.560 240.685,237.721 240.748,237.136 240.767 C 236.112 240.799,236.078 240.873,236.242 242.700 C 236.435 244.859,236.641 249.052,236.995 258.000 C 237.130 261.410,237.324 265.010,237.427 266.000 C 237.529 266.990,237.600 268.850,237.584 270.132 C 237.558 272.284,238.110 273.827,238.762 273.423 C 238.911 273.331,241.816 273.146,245.217 273.012 C 248.618 272.879,251.961 272.682,252.646 272.577 C 253.331 272.471,255.761 272.296,258.046 272.188 C 260.331 272.081,263.460 271.898,265.000 271.782 C 267.701 271.578,271.758 271.394,276.433 271.263 C 277.895 271.222,278.681 271.027,278.707 270.700 C 278.729 270.425,278.858 267.011,278.994 263.112 L 279.241 256.024 274.621 251.312 C 272.081 248.721,270.002 246.563,270.001 246.517 C 270.000 246.471,268.285 244.660,266.190 242.491 C 262.402 238.571,259.998 237.336,258.694 238.639 M305.124 256.210 C 305.008 256.325,300.883 256.446,295.957 256.478 C 291.031 256.510,286.214 256.617,285.252 256.715 L 283.504 256.893 283.806 260.347 C 283.971 262.246,284.150 264.250,284.202 264.800 C 284.254 265.350,284.323 266.520,284.355 267.400 C 284.437 269.698,284.934 270.365,285.907 269.484 C 286.323 269.108,286.874 268.800,287.131 268.800 C 287.389 268.800,287.600 268.641,287.600 268.447 C 287.600 268.252,287.915 267.979,288.300 267.840 C 289.161 267.529,289.568 267.283,294.916 263.849 C 297.272 262.336,299.200 260.941,299.200 260.749 C 299.200 260.557,299.560 260.400,300.000 260.400 C 300.440 260.400,300.800 260.220,300.800 260.000 C 300.800 259.780,301.027 259.600,301.304 259.600 C 301.581 259.600,302.342 259.105,302.994 258.500 C 303.647 257.895,304.275 257.422,304.390 257.449 C 304.851 257.557,305.550 257.107,305.757 256.569 C 305.968 256.019,305.551 255.782,305.124 256.210 " stroke="none" fill="#84bc4c" fill-rule="evenodd"></path><path id="path1" d="M299.600 144.525 C 299.600 144.594,300.185 145.179,300.900 145.825 L 302.200 147.000 301.025 145.700 C 299.930 144.488,299.600 144.216,299.600 144.525 M280.778 152.700 L 279.400 154.200 280.900 152.822 C 282.296 151.538,282.584 151.200,282.278 151.200 C 282.212 151.200,281.537 151.875,280.778 152.700 M277.606 155.394 C 276.863 156.161,276.332 156.850,276.427 156.925 C 276.522 157.000,277.206 156.373,277.946 155.531 C 279.629 153.618,279.412 153.531,277.606 155.394 M274.575 158.500 L 273.400 159.800 274.700 158.625 C 275.415 157.979,276.000 157.394,276.000 157.325 C 276.000 157.016,275.670 157.288,274.575 158.500 M271.781 161.700 L 270.200 163.400 271.900 161.819 C 272.835 160.949,273.600 160.184,273.600 160.119 C 273.600 159.816,273.252 160.119,271.781 161.700 M265.775 167.700 L 264.600 169.000 265.900 167.825 C 266.615 167.179,267.200 166.594,267.200 166.525 C 267.200 166.216,266.870 166.488,265.775 167.700 " stroke="none" fill="#84c44c" fill-rule="evenodd"></path><path id="path2" d="M274.778 158.700 L 273.400 160.200 274.900 158.822 C 276.296 157.538,276.584 157.200,276.278 157.200 C 276.212 157.200,275.537 157.875,274.778 158.700 M268.581 164.900 L 267.000 166.600 268.700 165.019 C 270.281 163.548,270.584 163.200,270.281 163.200 C 270.216 163.200,269.451 163.965,268.581 164.900 M104.093 185.600 C 104.093 186.370,104.175 186.685,104.276 186.300 C 104.376 185.915,104.376 185.285,104.276 184.900 C 104.175 184.515,104.093 184.830,104.093 185.600 " stroke="none" fill="#88bc4c" fill-rule="evenodd"></path><path id="path3" d="M274.778 158.700 L 273.400 160.200 274.900 158.822 C 276.296 157.538,276.584 157.200,276.278 157.200 C 276.212 157.200,275.537 157.875,274.778 158.700 M268.581 164.900 L 267.000 166.600 268.700 165.019 C 270.281 163.548,270.584 163.200,270.281 163.200 C 270.216 163.200,269.451 163.965,268.581 164.900 M104.093 185.600 C 104.093 186.370,104.175 186.685,104.276 186.300 C 104.376 185.915,104.376 185.285,104.276 184.900 C 104.175 184.515,104.093 184.830,104.093 185.600 " stroke="none" fill="#88bc4c" fill-rule="evenodd"></path><path id="path4" d="M274.778 158.700 L 273.400 160.200 274.900 158.822 C 276.296 157.538,276.584 157.200,276.278 157.200 C 276.212 157.200,275.537 157.875,274.778 158.700 M268.581 164.900 L 267.000 166.600 268.700 165.019 C 270.281 163.548,270.584 163.200,270.281 163.200 C 270.216 163.200,269.451 163.965,268.581 164.900 M104.093 185.600 C 104.093 186.370,104.175 186.685,104.276 186.300 C 104.376 185.915,104.376 185.285,104.276 184.900 C 104.175 184.515,104.093 184.830,104.093 185.600 " stroke="none" fill="#88bc4c" fill-rule="evenodd"></path></g></svg>